<svg width="70" height="70" viewBox="0 0 70 70" fill="none" xmlns="http://www.w3.org/2000/svg">
<path d="M34.5895 0C15.5142 0 0 15.5142 0 34.5895C0 53.6649 15.5142 69.1887 34.5895 69.1887C53.6649 69.1887 69.1886 53.6744 69.1886 34.5895C69.1886 15.5047 53.6744 0 34.5895 0ZM46.8386 9.16533C48.0797 9.7668 49.3113 10.4733 50.4761 11.2753L51.3639 11.8863L50.3138 12.1345C49.5786 12.3064 48.7671 12.4878 47.8887 12.6501L47.5069 12.7264L47.3637 12.3636C47.0105 11.4948 46.6189 10.6356 46.2084 9.80499L45.5879 8.55431L46.8481 9.16533H46.8386ZM28.5747 12.8983C30.5033 8.92664 32.871 6.36799 34.5991 6.36799C36.3271 6.36799 38.7139 8.95529 40.652 12.9651L40.9574 13.5952L40.251 13.643C38.5325 13.7671 36.8044 13.8339 35.105 13.8339H34.8663C32.9282 13.8339 30.9425 13.7384 28.9566 13.5761L28.2597 13.5189L28.5652 12.8887L28.5747 12.8983ZM24.4217 30.2838C24.6604 26.6654 25.1855 23.2475 25.9875 20.1064L26.0925 19.7054L26.5031 19.7436C29.2718 20.0301 32.0882 20.1828 34.8569 20.1924H35.1146C37.6541 20.1924 40.2129 20.0682 42.7238 19.82L43.1342 19.7818L43.2392 20.1828C44.0317 23.3047 44.5568 26.7036 44.7859 30.2838L44.8146 30.7898H24.3931L24.4217 30.2838ZM6.7116 30.2456C7.44674 25.5292 9.40397 21.0325 12.3731 17.2327L12.5736 16.9749L12.8887 17.0704C14.2063 17.4809 16.383 18.0824 19.2853 18.6648L19.7722 18.7603L19.6577 19.2472C18.8175 22.7319 18.2733 26.4649 18.0441 30.3506L18.0156 30.7993H6.62571L6.7116 30.2456ZM12.3158 51.8891L12.1154 51.6218C9.03161 47.5546 7.11267 42.7429 6.55893 37.6924L6.50159 37.1673H17.9678L17.9869 37.6256C18.1588 41.8072 18.6934 45.8171 19.5718 49.5596L19.6863 50.0369L19.1994 50.1324C16.1921 50.7339 13.9771 51.364 12.6405 51.7841L12.3158 51.8891ZM22.3595 60.0233C20.9942 59.3646 19.6481 58.5721 18.3593 57.6556L17.4904 57.035L18.5311 56.7964C19.333 56.615 20.2209 56.424 21.1948 56.2426L21.5767 56.1662L21.7199 56.529C22.1113 57.522 22.5409 58.4767 22.9896 59.3741L23.6102 60.6248L22.3499 60.0138L22.3595 60.0233ZM22.9992 9.81453C22.6078 10.6069 22.2354 11.4376 21.8821 12.2873L21.7389 12.6501L21.3571 12.5737C20.4979 12.4114 19.7054 12.2491 18.9703 12.0868L17.8915 11.8481L18.808 11.2275C19.9441 10.4637 21.1375 9.7668 22.3691 9.17487L23.6293 8.56385L23.0088 9.81453H22.9992ZM40.8524 55.8321C38.8666 60.0806 36.4226 62.8302 34.6086 62.8302C32.7947 62.8302 30.3792 60.1092 28.403 55.8989L28.1165 55.2784L28.8039 55.2211C30.8374 55.0492 32.8901 54.9633 34.895 54.9538H35.1241C36.9094 54.9538 38.7044 55.0206 40.4611 55.1542L41.1485 55.202L40.8524 55.8226V55.8321ZM44.8623 37.6733C44.6905 41.5399 44.1749 45.2251 43.3442 48.6144L43.2488 49.0154L42.8383 48.9772C40.2988 48.7194 37.7019 48.5953 35.1337 48.5953H34.8759C32.0785 48.5953 29.2335 48.7576 26.4266 49.0536L26.0162 49.1013L25.9206 48.7003C25.0804 45.292 24.5553 41.5877 24.3835 37.6828L24.3644 37.1864H44.91L44.8909 37.6828L44.8623 37.6733ZM50.9152 57.627C49.6073 58.553 48.242 59.3646 46.8577 60.0424L45.5975 60.6534L46.218 59.4028C46.6762 58.4862 47.1154 57.5028 47.5164 56.4813L47.6596 56.109L48.0511 56.1853C48.9867 56.3667 49.9032 56.5672 50.7529 56.7773L51.765 57.0255L50.9152 57.627ZM62.6584 37.7115C62.1046 42.7715 60.176 47.6024 57.0827 51.6695L56.8727 51.9464L56.5481 51.8318C55.4788 51.4595 53.2161 50.7434 50.0368 50.0847L49.5595 49.9892L49.6741 49.5118C50.5429 45.7884 51.068 41.7882 51.2398 37.6447L51.2589 37.1864H62.7251L62.6678 37.7115H62.6584ZM62.5819 30.8089H51.1921L51.1635 30.3601C50.9343 26.5031 50.3997 22.7987 49.569 19.3331L49.4545 18.8557L49.9414 18.7603C52.8629 18.1588 55.011 17.5096 56.2903 17.08L56.6053 16.9749L56.8155 17.2423C59.7942 21.0421 61.7513 25.5483 62.4865 30.2742L62.5723 30.828L62.5819 30.8089Z" fill="white"/>
</svg>
