<svg width="48" height="74" viewBox="0 0 48 74" fill="none" xmlns="http://www.w3.org/2000/svg">
<path d="M5.05045 13.9103C11.1702 9.03166 17.0513 6.8549 24.078 6.8549C32.3555 6.8549 37.9883 10.3778 42.8097 14.2635L47.9079 8.87891C41.664 3.15058 33.2147 0 24.078 0C14.9414 0 6.76897 3.04556 0 8.5734L5.05045 13.9198V13.9103Z" fill="white"/>
<path d="M10.8171 20.3547L15.2184 25.0137C17.7962 23.3811 20.3548 22.7033 23.935 22.7033C27.5152 22.7033 30.093 23.3811 32.6803 25.0233L37.0911 20.3642C33.234 17.6146 28.6991 16.1635 23.9446 16.1635C19.19 16.1635 14.6647 17.6051 10.8267 20.3356L10.8171 20.3547Z" fill="white"/>
<path d="M6.76908 66.4008V73.2748H41.1199V66.4008H34.6565L27.076 30.7706L20.2975 30.8088L13.0989 66.4104H6.75952L6.76908 66.4008ZM23.7822 47.736L27.7538 66.4008H20.0111L23.7822 47.736Z" fill="white"/>
</svg>
