<svg width="64" height="60" viewBox="0 0 64 60" fill="none" xmlns="http://www.w3.org/2000/svg">
<path d="M31.7463 52.2999V60C15.2131 60 1.76001 46.5469 1.76001 30.0138C1.76001 21.3292 5.43405 13.3046 11.6931 7.70006H0V0H23.6722V23.6722H15.9721V14.2671C11.8581 18.3757 9.46558 23.9747 9.46558 30.0138C9.46558 42.3009 19.4647 52.2999 31.7518 52.2999H31.7463ZM51.8159 52.2999C58.0695 46.7009 61.749 38.6763 61.749 29.9863C61.749 13.4531 48.2959 0 31.7628 0V7.70006C44.0499 7.70006 54.049 17.6991 54.049 29.9863C54.049 36.0253 51.6509 41.6243 47.5424 45.7329V36.3278H39.8423V60H63.5145V52.2999H51.8214H51.8159Z" fill="url(#paint0_linear_6097_1584)"/>
<defs>
<linearGradient id="paint0_linear_6097_1584" x1="52.9175" y1="4.41176" x2="31.8752" y2="62.5685" gradientUnits="userSpaceOnUse">
<stop stop-color="#FF4C00"/>
<stop offset="0.52" stop-color="#B38BCE"/>
<stop offset="1" stop-color="#00E4F0"/>
</linearGradient>
</defs>
</svg>
